{"title":"BBC.Darwins.Dangerous.Idea.1of3.Body.and.Soul.480p.HDTV.x264-t2b","uid":12010600,"size":359453636,"categoryP":"video","categoryS":"tv_shows","magnet":"?xt=urn:btih:6351fdafeb01c2adbe65a3f7f6963bc0460eb247&amp;dn=BBC.Darwins.Dangerous.Idea.1of3.Body.and.Soul.480p.HDTV.x264-t2b&amp;tr=udp%3A%2F%2Ftracker.openbittorrent.com%3A80&amp;tr=udp%3A%2F%2Fopen.demonii.com%3A1337&amp;tr=udp%3A%2F%2Ftracker.coppersurfer.tk%3A6969&amp;tr=udp%3A%2F%2Fexodus.desync.com%3A6969","seeders":0,"leechers":1,"uploader":"toots2boots","files":2,"time":1434103592,"description":"Episode 1 of 3\nBody and Soul\nDarwin's Dangerous Idea Episode 1 of 3\nIn the first episode of the three-part series, Andrew Marr explores how Darwin's theory of evolution by natural selection has taken on a life of its own far beyond the world of science\nHe argues that Darwin's theory has transformed our understanding of what it means to be human. Over the last 150 years, Darwin's ideas have challenged the need for a creator, undermined religious authority, and provided new ways of looking at the origins of human morality.This began to raise questions in his mind about the origins of the human race. The answers to these questions would emerge over the next 30 years, culminating in the publication of On The Origin of Species in 1859.\n\nGeneral\nComplete name                            : M:PostsBBC.Darwins.Dangerous.Idea.1of3.Body.and.Soul.480p.HDTV.x264-t2bBBC.Darwins.Dangerous.Idea.1of3.Body.and.Soul.480p.HDTV.x264-t2b.mp4\nFormat                                   : MPEG-4\nFormat profile                           : Base Media\nCodec ID                                 : isom\nFile size                                : 343 MiB\nDuration                                 : 57mn 50s\nOverall bit rate                         : 829 Kbps\nWriting application                      : Lavf54.63.104\n\nVideo\nID                                       : 1\nFormat                                   : AVC\nFormat/Info                              : Advanced Video Codec\nFormat profile                           : &lt;a class=&quot;__cf_email__&quot; href=&quot;/cdn-cgi/l/email-protection&quot; data-cfemail=&quot;d991b0beb19995eaf7e9&quot;&gt;[email&amp;#160;protected]&lt;/a&gt;&lt;script data-cfhash='f9e31' type=&quot;text/javascript&quot;&gt;\n/* &lt;![CDATA[ */!function(){try{var t=&quot;currentScript&quot;in document?document.currentScript:function(){for(var t=document.getElementsByTagName(&quot;script&quot;),e=t.length;e--;)if(t[e].getAttribute(&quot;data-cfhash&quot;))return t[e]}();if(t&amp;&amp;t.previousSibling){var e,r,n,i,c=t.previousSibling,a=c.getAttribute(&quot;data-cfemail&quot;);if(a){for(e=&quot;&quot;,r=parseInt(a.substr(0,2),16),n=2;a.length-n;n+=2)i=parseInt(a.substr(n,2),16)^r,e+=String.fromCharCode(i);e=document.createTextNode(e),c.parentNode.replaceChild(e,c)}t.parentNode.removeChild(t);}}catch(u){}}()/* ]]&gt; */&lt;/script&gt;\nFormat settings, CABAC                   : Yes\nFormat settings, ReFrames                : 4 frames\nCodec ID                                 : avc1\nCodec ID/Info                            : Advanced Video Coding\nDuration                                 : 57mn 50s\nBit rate                                 : 700 Kbps\nWidth                                    : 852 pixels\nHeight                                   : 480 pixels\nDisplay aspect ratio                     : 16:9\nOriginal display aspect ratio            : 3.151\nFrame rate mode                          : Constant\nFrame rate                               : 23.976 fps\nColor space                              : YUV\nChroma subsampling                       : 4:2:0\nBit depth                                : 8 bits\nScan type                                : Progressive\nBits/(Pixel*Frame)                       : 0.071\nStream size                              : 287 MiB (84%)\nWriting library                          : x264 core 123 r2189 35cf912\nEncoding settings                        : cabac=1 / ref=3 / deblock=1:0:0 / analyse=0x3:0x133 / me=hex / subme=7 / psy=1 / psy_rd=1.00:0.00 / mixed_ref=1 / me_range=16 / chroma_me=1 / trellis=1 / 8x8dct=1 / cqm=0 / deadzone=21,11 / fast_pskip=1 / chroma_qp_offset=-2 / threads=3 / sliced_threads=0 / nr=0 / decimate=1 / interlaced=0 / bluray_compat=0 / constrained_intra=0 / bframes=3 / b_pyramid=2 / b_adapt=1 / b_bias=0 / direct=1 / weightb=1 / open_gop=0 / weightp=2 / keyint=250 / keyint_min=25 / scenecut=40 / intra_refresh=0 / rc_lookahead=40 / rc=abr / mbtree=1 / bitrate=700 / ratetol=1.0 / qcomp=0.60 / qpmin=10 / qpmax=51 / qpstep=4 / ip_ratio=1.40 / aq=1:1.00\n\nAudio\nID                                       : 2\nFormat                                   : AAC\nFormat/Info                              : Advanced Audio Codec\nFormat profile                           : LC\nCodec ID                                 : 40\nDuration                                 : 57mn 49s\nBit rate mode                            : Constant\nBit rate                                 : 128 Kbps\nChannel(s)                               : 2 channels\nChannel positions                        : Front: L R\nSampling rate                            : 48.0 KHz\nCompression mode                         : Lossy\nStream size                              : 52.9 MiB (15%)","torrent":{"xt":"urn:btih:6351fdafeb01c2adbe65a3f7f6963bc0460eb247","amp;dn":"BBC.Darwins.Dangerous.Idea.1of3.Body.and.Soul.480p.HDTV.x264-t2b","amp;tr":["udp%3A%2F%2Ftracker.openbittorrent.com%3A80","udp%3A%2F%2Fopen.demonii.com%3A1337","udp%3A%2F%2Ftracker.coppersurfer.tk%3A6969","udp%3A%2F%2Fexodus.desync.com%3A6969"],"infoHash":"6351fdafeb01c2adbe65a3f7f6963bc0460eb247","infoHashBuffer":{"type":"Buffer","data":[99,81,253,175,235,1,194,173,190,101,163,247,246,150,59,192,70,14,178,71]},"announce":[],"urlList":[]}}